# xmcd
#
# Track frame offsets:
#	182
#	14257
#	28217
#	42052
#	57310
#	75177
#	94352
#	110575
#	129245
#	146062
#	157687
#	170782
#	188210
#	206842
#	225470
#	244055
#
# Disc length: 3444 seconds
#
# Revision: 1
# Processed by: cddbd v1.5.2PL0 Copyright (c) Steve Scherf et al.
# Submitted via: FairStars CD Ripper 1.90
#
DISCID=d00d7210
DTITLE=Various Artist - Rockin' Zydeco Party
DYEAR=1994
DGENRE=Zydeco
TTITLE0=Boozoo Chavis - Boozoo's Trail Ride Breakdown 
TTITLE1=Zydeco Force - Everyday Talk
TTITLE2=Rockin' Sidney - No Good Woman 
TTITLE3=Beau Jocque and Zydeco High Rollers - Don't Sell That Monkey  
TTITLE4=Keith Frank - Went Out Last Night 
TTITLE5=Cory Arceneaux - Hot Pepper 
TTITLE6=John Delafose - John's Lonesome Waltz  
TTITLE7=T-Lou and LA Zydeco Band - Super Hot 
TTITLE8=Clifton Chenier - Shake It Don't Break It  
TTITLE9=Rockin' Dopsie - Foot Stompin' Zydeco 
TTITLE10=Preston Frank and His Zydeco Family Band - Went to a Dance Last Night 
TTITLE11=Roy Carrier - Zydeco Lawtell 
TTITLE12=Ann Goodly - A Woman Needs Attention 
TTITLE13=Lynn August - Amazon Annie 
TTITLE14=Wilfred Chevis and Texas Zydeco Band - Chere Marie
TTITLE15=Rosie Ledet - Shame On You
EXTD=
EXTT0=
EXTT1=
EXTT2=
EXTT3=
EXTT4=
EXTT5=
EXTT6=
EXTT7=
EXTT8=
EXTT9=
EXTT10=
EXTT11=
EXTT12=
EXTT13=
EXTT14=
EXTT15=
PLAYORDER=
